<?xml version="1.0" encoding="utf-8"?>
<!-- Generator: Adobe Illustrator 27.1.0, SVG Export Plug-In . SVG Version: 6.00 Build 0)  -->
<svg version="1.1" id="Layer_1" xmlns:serif="http://www.serif.com/"
	 xmlns="http://www.w3.org/2000/svg" xmlns:xlink="http://www.w3.org/1999/xlink" x="0px" y="0px" viewBox="0 0 456 456"
	 style="enable-background:new 0 0 456 456;" xml:space="preserve">
<style type="text/css">
	.st0{fill:#FFFFFF;}
</style>
<g>
	<path class="st0" d="M216.2,283.6c1.1-8.5,3-16.8,5.5-24.9c-2.2-6.6-4.9-12.9-8-19.1c-6.1,14.4-10.1,29.5-11.8,45
		c1.9-0.6,3.9-1,6-1H216.2z"/>
	<path class="st0" d="M282.3,194.2c-0.6-0.6-1.4-1.2-2.2-1.5c-0.5-0.2-1-0.3-1.5-0.4c-0.4-0.1-0.8-0.1-1.3-0.1
		c-0.7,0-1.4,0.1-2.1,0.3c-0.7,0.2-1.3,0.5-1.9,0.9c-0.7,0.5-1.4,1.2-1.9,1.9c-0.4,0.6-0.6,1.2-0.9,1.9c-0.2,0.7-0.3,1.3-0.3,2.1
		v103.6c0,3.9,3.1,7,7,7h37.3c3.9,0,7-3.1,7-7V154.2c0-1.8-0.7-3.5-1.9-4.8c-0.3-0.3-0.7-0.7-1-0.9c0,0,0,0,0,0
		c-0.3-0.2-0.6-0.4-0.8-0.5c-0.1,0-0.2-0.1-0.3-0.1c-0.2-0.1-0.4-0.2-0.7-0.3c-0.1,0-0.2-0.1-0.3-0.1c-0.3-0.1-0.6-0.2-0.9-0.2
		c0,0,0,0,0,0c-0.3-0.1-0.7-0.1-1-0.1c-0.1,0-0.2,0-0.3,0c-0.2,0-0.5,0-0.7,0.1c-0.1,0-0.2,0-0.3,0c-0.3,0.1-0.7,0.1-1,0.2
		c0,0,0,0,0,0l-0.7,0.2l-0.3,0.1c-21.9,7.4-41.8,19.3-58.5,35.1c-0.2,0.2-0.3,0.3-0.5,0.5c-2.3,2.2-4.5,4.5-6.7,6.8
		c-3.5,3.7-6.8,7.6-9.9,11.6c2.9,4.1,5.6,8.4,8.1,12.8c16.1-22.1,38-39.9,63.7-50.4v131.5h-23.2v-96.6
		C284.4,197.2,283.6,195.5,282.3,194.2z"/>
	<path class="st0" d="M249.3,309.6c0.5-0.1,1-0.2,1.5-0.4c2.5-1.1,4.3-3.6,4.3-6.5c0-22.2-4.4-43.5-12.5-63.1
		c-1.9-4.6-4-9.1-6.3-13.5c0,0,0,0,0,0c-2.5-4.7-5.2-9.3-8.1-13.7c-2.4-3.6-4.9-7.1-7.5-10.5c-19.3-24.8-45.8-44.1-77.1-54.4
		c0,0,0,0,0,0c-0.3-0.1-0.7-0.2-1-0.2c-0.1,0-0.2,0-0.3,0c-0.2,0-0.5-0.1-0.7-0.1c-0.1,0-0.2,0-0.3,0c-0.3,0-0.7,0-1,0.1
		c0,0,0,0,0,0c-0.3,0.1-0.6,0.1-0.9,0.2c-0.1,0-0.2,0.1-0.3,0.1c-0.2,0.1-0.5,0.2-0.7,0.3c-0.1,0-0.2,0.1-0.3,0.1
		c-0.3,0.2-0.6,0.3-0.9,0.5c-0.2,0.2-0.4,0.3-0.6,0.5c-1.4,1.3-2.3,3.2-2.3,5.2v148.6c0,1.4,0.4,2.8,1.2,3.9
		c1.3,1.9,3.4,3.1,5.9,3.1h37.3c3.9,0,7-3.1,7-7V199c0-2.9-1.8-5.4-4.3-6.5c-0.7-0.3-1.4-0.4-2.2-0.5c-0.2,0-0.3-0.1-0.5-0.1
		c-1.9,0-3.7,0.8-5,2.1c-1.3,1.3-2.1,3-2.1,5v96.8h-23.2V164.3c26.2,10.6,48.2,28.2,64.2,50.3c2.7,3.7,5.2,7.5,7.5,11.5c0,0,0,0,0,0
		c0.7,1.3,1.5,2.5,2.2,3.8c2.1,3.9,4.1,7.8,5.9,11.8v0c0,0,0,0,0,0c2.4,5.5,4.5,11.1,6.3,16.9c2.4,8,4.2,16.3,5.3,24.7
		c0.1,0.8,0.2,1.7,0.3,2.5c0.3,3,0.6,6,0.7,9.1c0,0.2,0,0.5,0,0.7h-13.6h-12.2h-7.2c-1,0-1.9,0.2-2.7,0.6c-0.1,0.1-0.2,0.1-0.4,0.2
		c-0.3,0.1-0.6,0.3-0.8,0.5c-0.1,0.1-0.2,0.2-0.3,0.2c-0.3,0.2-0.5,0.4-0.8,0.6c-0.2,0.2-0.3,0.3-0.4,0.5c-0.2,0.2-0.3,0.3-0.4,0.5
		c-0.2,0.2-0.3,0.5-0.4,0.7c-0.1,0.2-0.2,0.3-0.3,0.5c-0.1,0.3-0.2,0.6-0.3,0.9c0,0.1-0.1,0.3-0.1,0.4c-0.1,0.3-0.1,0.5-0.1,0.8
		c0,0.2-0.1,0.4-0.1,0.6c0,0,0,0,0,0c0,2.9,1.8,5.4,4.3,6.5c0.5,0.2,1,0.3,1.5,0.4c0.4,0.1,0.8,0.1,1.3,0.1h0h17.8h22.3
		C248.5,309.8,248.9,309.7,249.3,309.6z"/>
</g>
</svg>
