<?xml version="1.0" encoding="UTF-8"?>
<svg id="Layer_2" data-name="Layer 2" xmlns="http://www.w3.org/2000/svg" viewBox="0 0 456 456">
  <defs>
    <style>
      .cls-1 {
        fill: #fff;
      }

      .cls-2 {
        fill: #512bd4;
      }
    </style>
  </defs>
  <g id="Layer_1-2" data-name="Layer 1">
    <g>
      <rect class="cls-2" width="456" height="456"/>
      <g>
        <path class="cls-1" d="m216.24,283.05c1.13-8.5,2.97-16.84,5.51-24.94-2.19-6.56-4.88-12.94-8.03-19.09-6.08,14.38-10.05,29.5-11.8,45,1.89-.62,3.9-.97,6-.97h8.33Z"/>
        <path class="cls-1" d="m282.32,193.7c-.64-.64-1.39-1.15-2.23-1.51-.47-.2-.97-.33-1.48-.43-.41-.07-.83-.13-1.26-.13-.73,0-1.42.14-2.08.35-.66.21-1.29.47-1.85.85-.75.51-1.39,1.15-1.9,1.9-.38.56-.65,1.19-.85,1.85-.2.66-.35,1.35-.35,2.08v103.6c0,3.88,3.15,7.03,7.03,7.03h37.26c3.88,0,7.03-3.15,7.03-7.03v-148.56c0-1.79-.69-3.48-1.88-4.77-.31-.34-.65-.65-1.03-.93,0,0,0,0-.01,0-.27-.19-.55-.36-.84-.51-.09-.05-.18-.09-.27-.13-.22-.1-.44-.2-.67-.27-.09-.03-.19-.07-.28-.1-.3-.09-.61-.17-.92-.22-.01,0-.03,0-.04,0-.32-.05-.65-.07-.98-.08-.1,0-.19,0-.29,0-.25,0-.49.03-.74.06-.1.01-.2.02-.29.04-.33.06-.65.13-.97.24,0,0,0,0-.01,0l-.66.22-.26.09c-21.93,7.36-41.76,19.32-58.54,35.15-.16.15-.33.3-.5.46-2.31,2.19-4.54,4.48-6.72,6.82-3.47,3.71-6.8,7.58-9.95,11.64,2.87,4.13,5.57,8.39,8.08,12.76,16.06-22.13,37.99-39.91,63.72-50.39v131.45h-23.2v-96.57c0-1.94-.79-3.7-2.06-4.97Z"/>
        <path class="cls-1" d="m249.34,309.14c.51-.09,1.01-.23,1.48-.43,2.52-1.07,4.29-3.57,4.29-6.48,0-22.18-4.39-43.52-12.46-63.05-1.9-4.61-4.04-9.11-6.35-13.5h0c-2.47-4.72-5.16-9.31-8.07-13.74-2.37-3.61-4.88-7.12-7.52-10.53-19.3-24.83-45.8-44.06-77.13-54.37,0,0,0,0,0,0-.32-.11-.65-.18-.98-.24-.1-.02-.2-.03-.3-.04-.24-.03-.49-.05-.73-.06-.1,0-.2,0-.29,0-.33,0-.65.03-.98.08-.01,0-.03,0-.04,0-.31.05-.62.13-.92.22-.09.03-.19.06-.28.1-.23.08-.46.17-.68.28-.09.04-.18.08-.26.13-.29.15-.58.33-.86.52-.23.16-.45.34-.65.53-1.43,1.32-2.26,3.19-2.26,5.16v148.56c0,1.44.43,2.77,1.17,3.88,1.26,1.9,3.41,3.15,5.86,3.15h37.26c3.88,0,7.03-3.15,7.03-7.03v-103.82c0-2.91-1.77-5.41-4.29-6.48-.69-.29-1.44-.44-2.22-.5-.17-.01-.34-.05-.52-.05-1.94,0-3.7.79-4.97,2.06s-2.06,3.03-2.06,4.97v96.79h-23.2v-131.47c26.21,10.59,48.22,28.22,64.21,50.31,2.68,3.7,5.19,7.52,7.52,11.46h0c.75,1.26,1.47,2.53,2.18,3.82,2.13,3.85,4.09,7.8,5.87,11.85h0s0,0,0,0c2.42,5.48,4.55,11.12,6.31,16.91,2.44,8,4.2,16.27,5.29,24.73.11.85.21,1.7.31,2.55.33,3.01.58,6.05.74,9.11.01.23.03.46.04.7h-32.98c-.97,0-1.9.2-2.74.55-.13.05-.24.13-.36.19-.28.14-.57.28-.83.45-.1.07-.19.16-.29.24-.26.2-.52.39-.75.62-.15.15-.27.33-.41.5-.15.18-.32.35-.45.54-.15.23-.27.48-.4.73-.08.16-.18.3-.25.46-.12.29-.2.6-.28.91-.04.14-.1.27-.13.41-.05.25-.06.52-.08.78-.02.21-.06.42-.06.63h0c0,2.91,1.77,5.41,4.29,6.48.47.2.97.33,1.48.43.41.07.83.13,1.26.13h40.17c.43,0,.85-.05,1.26-.13Z"/>
      </g>
    </g>
  </g>
</svg>